<svg width="691" height="691" viewBox="0 0 691 691" fill="none" xmlns="http://www.w3.org/2000/svg">
<g clip-path="url(#clip0_342_22)">
<rect width="691" height="691" fill="#A855F7"/>
<g filter="url(#filter0_d_342_22)">
<rect x="-206" y="-102" width="644" height="644" rx="322" fill="#8E42D5"/>
<rect x="-206" y="-102" width="644" height="644" rx="322" fill="#822BD5"/>
</g>
<g filter="url(#filter1_d_342_22)">
<rect x="265" y="-94" width="572" height="572" rx="286" fill="#8E42D5"/>
<rect x="265" y="-94" width="572" height="572" rx="286" fill="#A855F7"/>
</g>
<g filter="url(#filter2_d_342_22)">
<rect x="-108" y="362" width="388" height="388" rx="194" fill="#761EC9"/>
</g>
<g filter="url(#filter3_d_342_22)">
<rect x="191" y="311" width="603" height="603" rx="301.5" fill="#8E42D5"/>
<rect x="191" y="311" width="603" height="603" rx="301.5" fill="#8E42D5"/>
</g>
<path d="M135.136 333C134.955 330.727 134.102 328.955 132.58 327.682C131.08 326.409 128.795 325.773 125.727 325.773C123.773 325.773 122.17 326.011 120.92 326.489C119.693 326.943 118.784 327.568 118.193 328.364C117.602 329.159 117.295 330.068 117.273 331.091C117.227 331.932 117.375 332.693 117.716 333.375C118.08 334.034 118.648 334.636 119.42 335.182C120.193 335.705 121.182 336.182 122.386 336.614C123.591 337.045 125.023 337.432 126.682 337.773L132.409 339C136.273 339.818 139.58 340.898 142.33 342.239C145.08 343.58 147.33 345.159 149.08 346.977C150.83 348.773 152.114 350.795 152.932 353.045C153.773 355.295 154.205 357.75 154.227 360.409C154.205 365 153.057 368.886 150.784 372.068C148.511 375.25 145.261 377.67 141.034 379.33C136.83 380.989 131.773 381.818 125.864 381.818C119.795 381.818 114.5 380.92 109.977 379.125C105.477 377.33 101.977 374.568 99.4773 370.841C97 367.091 95.75 362.295 95.7273 356.455H113.727C113.841 358.591 114.375 360.386 115.33 361.841C116.284 363.295 117.625 364.398 119.352 365.148C121.102 365.898 123.182 366.273 125.591 366.273C127.614 366.273 129.307 366.023 130.67 365.523C132.034 365.023 133.068 364.33 133.773 363.443C134.477 362.557 134.841 361.545 134.864 360.409C134.841 359.341 134.489 358.409 133.807 357.614C133.148 356.795 132.057 356.068 130.534 355.432C129.011 354.773 126.955 354.159 124.364 353.591L117.409 352.091C111.227 350.75 106.352 348.511 102.784 345.375C99.2386 342.216 97.4773 337.909 97.5 332.455C97.4773 328.023 98.6591 324.148 101.045 320.83C103.455 317.489 106.784 314.886 111.034 313.023C115.307 311.159 120.205 310.227 125.727 310.227C131.364 310.227 136.239 311.17 140.352 313.057C144.466 314.943 147.636 317.602 149.864 321.034C152.114 324.443 153.25 328.432 153.273 333H135.136ZM180.528 351.545V381H161.71V311.182H179.847V338.591H180.392C181.574 335.25 183.54 332.648 186.29 330.784C189.04 328.898 192.347 327.955 196.21 327.955C199.915 327.955 203.131 328.795 205.858 330.477C208.608 332.159 210.733 334.477 212.233 337.432C213.756 340.386 214.506 343.773 214.483 347.591V381H195.665V351.545C195.688 348.955 195.04 346.92 193.722 345.443C192.426 343.966 190.574 343.227 188.165 343.227C186.642 343.227 185.301 343.568 184.142 344.25C183.006 344.909 182.119 345.864 181.483 347.114C180.869 348.341 180.551 349.818 180.528 351.545ZM238.364 381.818C235.023 381.818 232.068 381.273 229.5 380.182C226.955 379.068 224.955 377.386 223.5 375.136C222.045 372.886 221.318 370.023 221.318 366.545C221.318 363.682 221.807 361.239 222.784 359.216C223.761 357.17 225.125 355.5 226.875 354.205C228.625 352.909 230.659 351.92 232.977 351.239C235.318 350.557 237.841 350.114 240.545 349.909C243.477 349.682 245.83 349.409 247.602 349.091C249.398 348.75 250.693 348.284 251.489 347.693C252.284 347.08 252.682 346.273 252.682 345.273V345.136C252.682 343.773 252.159 342.727 251.114 342C250.068 341.273 248.727 340.909 247.091 340.909C245.295 340.909 243.83 341.307 242.693 342.102C241.58 342.875 240.909 344.068 240.682 345.682H223.364C223.591 342.5 224.602 339.568 226.398 336.886C228.216 334.182 230.864 332.023 234.341 330.409C237.818 328.773 242.159 327.955 247.364 327.955C251.114 327.955 254.477 328.398 257.455 329.284C260.432 330.148 262.966 331.364 265.057 332.932C267.148 334.477 268.739 336.295 269.83 338.386C270.943 340.455 271.5 342.705 271.5 345.136V381H253.909V373.636H253.5C252.455 375.591 251.182 377.17 249.682 378.375C248.205 379.58 246.511 380.455 244.602 381C242.716 381.545 240.636 381.818 238.364 381.818ZM244.5 369.955C245.932 369.955 247.273 369.659 248.523 369.068C249.795 368.477 250.83 367.625 251.625 366.511C252.42 365.398 252.818 364.045 252.818 362.455V358.091C252.318 358.295 251.784 358.489 251.216 358.67C250.67 358.852 250.08 359.023 249.443 359.182C248.83 359.341 248.17 359.489 247.466 359.625C246.784 359.761 246.068 359.886 245.318 360C243.864 360.227 242.67 360.602 241.739 361.125C240.83 361.625 240.148 362.25 239.693 363C239.261 363.727 239.045 364.545 239.045 365.455C239.045 366.909 239.557 368.023 240.58 368.795C241.602 369.568 242.909 369.955 244.5 369.955ZM280.491 381V328.636H298.764V338.591H299.31C300.264 334.909 301.776 332.216 303.844 330.511C305.935 328.807 308.378 327.955 311.173 327.955C311.991 327.955 312.798 328.023 313.594 328.159C314.412 328.273 315.196 328.443 315.946 328.67V344.727C315.014 344.409 313.866 344.17 312.503 344.011C311.139 343.852 309.969 343.773 308.991 343.773C307.151 343.773 305.491 344.193 304.014 345.034C302.56 345.852 301.412 347.011 300.571 348.511C299.73 349.989 299.31 351.727 299.31 353.727V381H280.491ZM334.27 381.818C330.929 381.818 327.974 381.273 325.406 380.182C322.861 379.068 320.861 377.386 319.406 375.136C317.952 372.886 317.224 370.023 317.224 366.545C317.224 363.682 317.713 361.239 318.69 359.216C319.668 357.17 321.031 355.5 322.781 354.205C324.531 352.909 326.565 351.92 328.884 351.239C331.224 350.557 333.747 350.114 336.452 349.909C339.384 349.682 341.736 349.409 343.509 349.091C345.304 348.75 346.599 348.284 347.395 347.693C348.19 347.08 348.588 346.273 348.588 345.273V345.136C348.588 343.773 348.065 342.727 347.02 342C345.974 341.273 344.634 340.909 342.997 340.909C341.202 340.909 339.736 341.307 338.599 342.102C337.486 342.875 336.815 344.068 336.588 345.682H319.27C319.497 342.5 320.509 339.568 322.304 336.886C324.122 334.182 326.77 332.023 330.247 330.409C333.724 328.773 338.065 327.955 343.27 327.955C347.02 327.955 350.384 328.398 353.361 329.284C356.338 330.148 358.872 331.364 360.963 332.932C363.054 334.477 364.645 336.295 365.736 338.386C366.849 340.455 367.406 342.705 367.406 345.136V381H349.815V373.636H349.406C348.361 375.591 347.088 377.17 345.588 378.375C344.111 379.58 342.418 380.455 340.509 381C338.622 381.545 336.543 381.818 334.27 381.818ZM340.406 369.955C341.838 369.955 343.179 369.659 344.429 369.068C345.702 368.477 346.736 367.625 347.531 366.511C348.327 365.398 348.724 364.045 348.724 362.455V358.091C348.224 358.295 347.69 358.489 347.122 358.67C346.577 358.852 345.986 359.023 345.349 359.182C344.736 359.341 344.077 359.489 343.372 359.625C342.69 359.761 341.974 359.886 341.224 360C339.77 360.227 338.577 360.602 337.645 361.125C336.736 361.625 336.054 362.25 335.599 363C335.168 363.727 334.952 364.545 334.952 365.455C334.952 366.909 335.463 368.023 336.486 368.795C337.509 369.568 338.815 369.955 340.406 369.955ZM395.216 311.182V381H376.398V311.182H395.216ZM419.395 381.818C416.054 381.818 413.099 381.273 410.531 380.182C407.986 379.068 405.986 377.386 404.531 375.136C403.077 372.886 402.349 370.023 402.349 366.545C402.349 363.682 402.838 361.239 403.815 359.216C404.793 357.17 406.156 355.5 407.906 354.205C409.656 352.909 411.69 351.92 414.009 351.239C416.349 350.557 418.872 350.114 421.577 349.909C424.509 349.682 426.861 349.409 428.634 349.091C430.429 348.75 431.724 348.284 432.52 347.693C433.315 347.08 433.713 346.273 433.713 345.273V345.136C433.713 343.773 433.19 342.727 432.145 342C431.099 341.273 429.759 340.909 428.122 340.909C426.327 340.909 424.861 341.307 423.724 342.102C422.611 342.875 421.94 344.068 421.713 345.682H404.395C404.622 342.5 405.634 339.568 407.429 336.886C409.247 334.182 411.895 332.023 415.372 330.409C418.849 328.773 423.19 327.955 428.395 327.955C432.145 327.955 435.509 328.398 438.486 329.284C441.463 330.148 443.997 331.364 446.088 332.932C448.179 334.477 449.77 336.295 450.861 338.386C451.974 340.455 452.531 342.705 452.531 345.136V381H434.94V373.636H434.531C433.486 375.591 432.213 377.17 430.713 378.375C429.236 379.58 427.543 380.455 425.634 381C423.747 381.545 421.668 381.818 419.395 381.818ZM425.531 369.955C426.963 369.955 428.304 369.659 429.554 369.068C430.827 368.477 431.861 367.625 432.656 366.511C433.452 365.398 433.849 364.045 433.849 362.455V358.091C433.349 358.295 432.815 358.489 432.247 358.67C431.702 358.852 431.111 359.023 430.474 359.182C429.861 359.341 429.202 359.489 428.497 359.625C427.815 359.761 427.099 359.886 426.349 360C424.895 360.227 423.702 360.602 422.77 361.125C421.861 361.625 421.179 362.25 420.724 363C420.293 363.727 420.077 364.545 420.077 365.455C420.077 366.909 420.588 368.023 421.611 368.795C422.634 369.568 423.94 369.955 425.531 369.955ZM461.523 381V328.636H479.795V338.591H480.341C481.295 334.909 482.807 332.216 484.875 330.511C486.966 328.807 489.409 327.955 492.205 327.955C493.023 327.955 493.83 328.023 494.625 328.159C495.443 328.273 496.227 328.443 496.977 328.67V344.727C496.045 344.409 494.898 344.17 493.534 344.011C492.17 343.852 491 343.773 490.023 343.773C488.182 343.773 486.523 344.193 485.045 345.034C483.591 345.852 482.443 347.011 481.602 348.511C480.761 349.989 480.341 351.727 480.341 353.727V381H461.523Z" fill="white"/>
<path d="M517.168 381H496.713L519.759 311.182H545.668L568.713 381H548.259L532.986 330.409H532.44L517.168 381ZM513.349 353.455H551.804V367.636H513.349V353.455ZM594.392 311.182V381H575.438V311.182H594.392Z" fill="#FFCF17"/>
</g>
<defs>
<filter id="filter0_d_342_22" x="-222" y="-114" width="684" height="684" filterUnits="userSpaceOnUse" color-interpolation-filters="sRGB">
<feFlood flood-opacity="0" result="BackgroundImageFix"/>
<feColorMatrix in="SourceAlpha" type="matrix" values="0 0 0 0 0 0 0 0 0 0 0 0 0 0 0 0 0 0 127 0" result="hardAlpha"/>
<feOffset dx="4" dy="8"/>
<feGaussianBlur stdDeviation="10"/>
<feComposite in2="hardAlpha" operator="out"/>
<feColorMatrix type="matrix" values="0 0 0 0 0 0 0 0 0 0 0 0 0 0 0 0 0 0 0.37 0"/>
<feBlend mode="normal" in2="BackgroundImageFix" result="effect1_dropShadow_342_22"/>
<feBlend mode="normal" in="SourceGraphic" in2="effect1_dropShadow_342_22" result="shape"/>
</filter>
<filter id="filter1_d_342_22" x="249" y="-106" width="612" height="612" filterUnits="userSpaceOnUse" color-interpolation-filters="sRGB">
<feFlood flood-opacity="0" result="BackgroundImageFix"/>
<feColorMatrix in="SourceAlpha" type="matrix" values="0 0 0 0 0 0 0 0 0 0 0 0 0 0 0 0 0 0 127 0" result="hardAlpha"/>
<feOffset dx="4" dy="8"/>
<feGaussianBlur stdDeviation="10"/>
<feComposite in2="hardAlpha" operator="out"/>
<feColorMatrix type="matrix" values="0 0 0 0 0 0 0 0 0 0 0 0 0 0 0 0 0 0 0.37 0"/>
<feBlend mode="normal" in2="BackgroundImageFix" result="effect1_dropShadow_342_22"/>
<feBlend mode="normal" in="SourceGraphic" in2="effect1_dropShadow_342_22" result="shape"/>
</filter>
<filter id="filter2_d_342_22" x="-124" y="350" width="428" height="428" filterUnits="userSpaceOnUse" color-interpolation-filters="sRGB">
<feFlood flood-opacity="0" result="BackgroundImageFix"/>
<feColorMatrix in="SourceAlpha" type="matrix" values="0 0 0 0 0 0 0 0 0 0 0 0 0 0 0 0 0 0 127 0" result="hardAlpha"/>
<feOffset dx="4" dy="8"/>
<feGaussianBlur stdDeviation="10"/>
<feComposite in2="hardAlpha" operator="out"/>
<feColorMatrix type="matrix" values="0 0 0 0 0 0 0 0 0 0 0 0 0 0 0 0 0 0 0.37 0"/>
<feBlend mode="normal" in2="BackgroundImageFix" result="effect1_dropShadow_342_22"/>
<feBlend mode="normal" in="SourceGraphic" in2="effect1_dropShadow_342_22" result="shape"/>
</filter>
<filter id="filter3_d_342_22" x="175" y="299" width="643" height="643" filterUnits="userSpaceOnUse" color-interpolation-filters="sRGB">
<feFlood flood-opacity="0" result="BackgroundImageFix"/>
<feColorMatrix in="SourceAlpha" type="matrix" values="0 0 0 0 0 0 0 0 0 0 0 0 0 0 0 0 0 0 127 0" result="hardAlpha"/>
<feOffset dx="4" dy="8"/>
<feGaussianBlur stdDeviation="10"/>
<feComposite in2="hardAlpha" operator="out"/>
<feColorMatrix type="matrix" values="0 0 0 0 0 0 0 0 0 0 0 0 0 0 0 0 0 0 0.37 0"/>
<feBlend mode="normal" in2="BackgroundImageFix" result="effect1_dropShadow_342_22"/>
<feBlend mode="normal" in="SourceGraphic" in2="effect1_dropShadow_342_22" result="shape"/>
</filter>
<clipPath id="clip0_342_22">
<rect width="691" height="691" fill="white"/>
</clipPath>
</defs>
</svg>
